# xmcd CD database file
#
# Track frame offsets:
#	150
#	14118
#	27378
#	39352
#	48767
#	62162
#	75080
#	90348
#	103215
#	118419
#	139103
#	151231
#
# Disc length: 2186 seconds
#
# Revision: 0
# Processed by: cddbd v1.5.2PL0 Copyright (c) Steve Scherf et al.
# Submitted via: CDex 1.51
#
DISCID=9308880c
DTITLE=Various Artist - 100% Country CD 7
DYEAR=2006
DGENRE=Country
TTITLE0=Landevei - Stein Ingebrigtsen
TTITLE1=Please help me I'm falling - Hank Locklin
TTITLE2=Rag Mop - Jesse James
TTITLE3=Your good girl's gonna on bad - Heidi Hauge
TTITLE4=Even cowgirls get the blues - PE-TO Bandet
TTITLE5=Cottonfields - Vidar Lønn Arnesen
TTITLE6=Førr ei natt - Ottar Big Hand Johansen
TTITLE7=I never knew love - Olivia Newton John
TTITLE8=On a summer night - The Bellamy Brothers
TTITLE9=Sing Australia - John Denver
TTITLE10=Lost highway - Hank Williams
TTITLE11=Cowboy beat - PE-TO Bandet
EXTD=YEAR: 2006
EXTT0=
EXTT1=
EXTT2=
EXTT3=
EXTT4=
EXTT5=
EXTT6=
EXTT7=
EXTT8=
EXTT9=
EXTT10=
EXTT11=
PLAYORDER=
